<svg version="1" xmlns="http://www.w3.org/2000/svg" width="1760" height="1760" viewBox="0 0 1320.000000 1320.000000"><path d="M100.5 6.2C81.8 12.4 66.8 34.1 60.3 64c-1.7 8.2-1.8 31.4-1.8 595 0 322.6.3 588.7.7 591.5 4.7 32.4 22.6 58.7 43.3 63.9 5.3 1.4 71.2 1.5 564 1.3l558-.2 5.5-2.9c15.4-8 26.6-29.1 30.5-57.4 1-7.9 1.2-117 1.1-598.7-.1-324-.5-590.4-.9-592-1-4.2-2.9-13.4-2.7-13.7.1-.2-1.3-4.4-3.1-9.3-6.3-17.9-13.9-28.3-25.4-34.3l-5-2.7-559-.2c-558.1-.2-559-.2-565 1.9zm1123.3 17.2c9.1 5.7 15.8 19.7 19.6 41.2 1.3 6.8 1.4 89.5 1.3 599.4l-.2 591.5-2.7 9.6c-4.4 16.2-9.6 25.6-17.2 31.1l-3.9 2.8H106.9l-4.1-2.1c-11.5-5.9-21.2-21.9-25.9-42.9-1.8-8.3-1.9-23.1-1.6-596l.2-587.5 2.4-8.5c3-10.8 7.2-20 12.4-27 4.9-6.6 7.9-9.3 13.2-12l4-2H1220l3.8 2.4z"/><path d="M196.6 71.6c-15.2 3.9-26.8 17.4-36 41.7-2.8 7.5-7.3 25-8.1 31.7-.3 2.5-.7 5.6-1 6.9-.2 1.4-.7 6.1-1.1 10.5-.8 9.5-1 420.4-.2 421.1.3.3.8-.7 1.1-2.3.3-1.7 2.7-8.8 5.2-15.8 4.9-13.3 5.6-15.2 9.6-24.3 1.3-3 2.3-5.9 2.2-6.3-.2-.4.1-.8.6-.8s1.2-1.2 1.5-2.6c.8-2.9 10.9-23.6 17.6-35.9 9.4-17.3 30.6-49.6 38.6-58.8 1.1-1.3 3.8-4.5 6-7.2 5.7-7.3 8-9.9 16.9-19.3 4.4-4.7 7.9-8.9 7.8-9.3-.2-.5.1-.8.6-.6.4.1 4.4-3.2 8.8-7.3 9.8-9.2 14.8-13.7 20.4-18 2.4-1.8 4.9-3.9 5.4-4.5.6-.6 3.5-2.8 6.5-4.8 6.6-4.5 14.9-10.3 17.1-12 1.8-1.4 3.3-2.3 14.9-9 24.9-14.4 48.5-24.6 75-32.2 11.9-3.5 33.8-8.6 37-8.7.8 0 5.8-.6 11-1.4 29.5-4.1 66.3-3.7 96.5 1.2 2.4.4 15.5 3.1 23.6 4.9 6.4 1.4 25.3 7.4 34.4 11 26.5 10.3 58.4 28.4 76.6 43.6 2.6 2.2 4.9 3.9 5.2 3.9.4 0 1.7 1 3 2.2 1.2 1.3 5 4.6 8.2 7.4 11.3 9.8 27.1 25.9 38.5 39.4 3 3.6 5.7 6.7 6 7 .3.3 2.5 3.2 5 6.5s4.8 6.2 5.1 6.5c.3.3 2 2.7 3.9 5.5 1.9 2.7 3.6 5.2 3.9 5.5.8.7 17 25.8 19.7 30.5 12.9 22.5 25.6 47.5 31.9 62.5 1.5 3.6 3.5 8.3 4.5 10.5 4.6 10.1 19.5 52.5 22.6 64 .2.5.5 1.9.8 3 .3 1.1 1.2 4.5 2.1 7.5 2.2 7.7 1.9 6.3 6.4 25 3.2 13.4 8.7 40.2 9.7 47.8.3 2.6.8 5.6 1 6.7.2 1.1.6 4.1.9 6.6.3 2.5.7 5.4.9 6.5.2 1 .7 5.3 1.1 9.4.4 4.1.9 8.3 1.1 9.3 1.7 9.1 2.4 67.7 1 85.7-.9 12.1-2.7 30.7-3.1 33.1-.2.9-.6 4-1 7-.3 3-1 7.6-1.5 10.4-.5 2.7-1.2 6.3-1.4 8-1.4 9.5-2 13-4.2 22.5-1.2 5.8-2.5 11.6-2.8 13-4.9 24.7-21.3 71.7-34.5 98.9-1.7 3.6-3.1 7-3.1 7.8 0 .7-.4 1.3-1 1.3-.5 0-1 .9-1 1.9 0 1.1-.3 2.1-.7 2.3-.5.1-2.2 3-3.9 6.3-1.6 3.3-3.7 7.1-4.5 8.5-.9 1.4-5.3 8.8-9.9 16.5-4.6 7.7-8.6 14.2-8.9 14.5-.3.3-2.6 3.4-5 7-4 5.9-14.9 20.8-16.1 22-.3.3-4.1 4.8-8.5 10-16.1 19.2-43.5 46-54.9 53.9-1.2.8-2.3 1.8-2.6 2.1-1.6 2-29.2 21.3-36.5 25.5-2.7 1.6-5.2 3.2-5.5 3.5-2.5 2.7-48.9 24.9-53.6 25.6-.6.1-2.7.9-4.5 1.7-3.2 1.4-18.6 6.6-21.2 7.1-.7.2-3.2.8-5.7 1.5-7.4 2.1-19.1 4.8-25 5.7-1.9.3-3.7.8-3.9 1-.3.2 127.5.3 284 .2l284.4-.3 5.5-2.6c12.2-5.7 23.7-20.3 30.7-39.1 4.3-11.4 8.1-27.5 9.1-38.8.9-10.7.9-991 0-1000.5-4.3-43.2-21.7-78.7-42.5-86.5l-5.8-2.2-453.9-.1c-316-.2-455.2.1-458 .9z"/><path d="M445.9 493.4c-.2.2-2.2.7-4.4 1-4.4.7-19.5 7.4-19.5 8.7 0 .4-.8 1-1.8 1.3-3.2 1.1-14.2 12.7-19.8 21.2-5.3 8-14.4 26.1-14.4 28.7 0 .7-.4 1.7-.9 2.2-1.3 1.5-7 22-8.5 31-.3 1.6-1 5.3-1.5 8.1-1.7 9-2.6 22.4-2.5 39.4.1 15 1.1 36.8 1.9 41.1.2 1 .6 5.3 1 9.6.3 4.3.8 8.5 1 9.3.2.8.6 4.6 1 8.5 1.2 13.5 6.6 48.8 10.6 69.5 1.1 5.8 2.2 12.1 2.5 14 .3 1.9.7 3.7.9 4 .2.3.6 2.5 1 5s.9 4.9 1.3 5.4c.3.6.7 2.4.9 4.1.8 7.4 11.6 49.9 19.7 77.5 3.9 13.2 13.7 42.1 16.1 47.5.7 1.6 3.2 7.7 5.5 13.5 14 35.1 34.3 68.5 52.1 85.6 16.9 16.2 31 22.4 49.5 21.9 29.3-.8 51.1-18.4 66.9-53.8 3.2-7.2 8.3-24.7 10-34.2 1-5.6 1.4-8.1 1.9-11 2.8-15.9 2.9-76.8.1-93.5-.2-1.4-.7-6.1-1-10.5-.4-4.4-.9-9.1-1-10.5-.2-1.4-.6-5.2-1-8.5-.3-3.3-1-8.7-1.5-12-.5-3.3-1.2-8.3-1.5-11-.3-2.8-.8-6.1-1-7.5-.3-1.4-.8-4.2-1.1-6.4-.3-2.1-.8-4.8-1-6-.2-1.1-.7-4.1-1-6.6-.3-2.5-.7-5.2-.9-6-.3-.8-.7-3.3-1-5.5-.4-2.2-1.2-7.2-2-11-.7-3.9-1.7-8.8-2.1-11-.4-2.2-.8-4.5-.9-5-.2-.6-1.2-5.7-2.4-11.5s-2.5-11.2-2.8-12c-.3-.8-.7-2.4-.8-3.5-.2-1.1-2.4-10.1-4.9-20-9.3-36.9-22.3-76.1-33.9-102-5.1-11.4-17.8-36-18.8-36.3-.5-.2-.9-.8-.9-1.3 0-1.5-11.2-17.8-17.1-25-4.4-5.4-12.4-13.5-18.9-19.3-7.5-6.6-22.4-13.9-32.7-16.1-6.3-1.4-19.4-2-20.4-1.1zM149.6 1053.7c.1 52.5.5 98.9.8 103.1 3.6 42.1 19.6 73.8 41.6 82.1 5.4 2 6.5 2.1 122 2 79.1-.1 115.2-.4 112.5-1.1-2.2-.5-9.4-2.3-16-3.9-30.2-7.5-61.5-21.3-92.6-40.8-4.3-2.7-14.4-9.6-14.9-10.2-.3-.3-2.3-1.8-4.5-3.4-15.3-11.2-40.6-34.6-51.8-47.9-2.3-2.7-4.9-5.6-5.8-6.5-.8-.9-4.5-5.3-8.1-9.8-3.7-4.5-7-7.8-7.4-7.5-.4.4-.4.2-.1-.5.4-.6.1-1.7-.6-2.5-.7-.7-2.4-2.9-3.7-4.8-1.3-1.9-2.7-3.7-3-4-1-.9-14.3-21.3-18.1-27.7-2-3.5-4-5.9-4.4-5.5-.5.4-.5.2-.2-.4.3-.6-.9-3.5-2.6-6.5-1.8-3-3.9-6.9-4.6-8.7-.7-1.7-1.6-3.2-2-3.2-.3 0-1.7-2.7-3-6s-2.8-6-3.3-6c-.4 0-.8-.5-.8-1.1 0-.6-1.3-3.9-2.9-7.3-4.5-9.8-6.7-14.7-9.1-20.6-1.2-3-2.6-6.4-3.1-7.5-2.3-5.5-6.2-16.2-9.7-26.8-2.2-6.5-4.1-11.9-4.3-12.1-.2-.3-.3 42.5-.3 95.1z"/></svg>